<svg xmlns="http://www.w3.org/2000/svg" viewBox="0 0 88 24">
  <defs>
    <style>
      .number {
        display: none;
      }
    </style>
  </defs>
  <g id="colors">
    <g data-group="1">
      <polygon id="shape-1-1" data-group="1" points="2.84 1.67 2.84 15.28 4.8 19.5 11.93 24 40.56 24 37.88 19.02 2.84 1.67" fill-rule="evenodd"/>
      <polyline id="shape-1-2" data-group="1" points="12.94 0 40.92 14.39 40.92 0 12.94 0" fill-rule="evenodd"/>
    </g>
    <g data-group="2">
      <polygon id="shape-2-1" data-group="2" points="85 1.67 85 15.28 83.04 19.5 75.91 24 47.28 24 49.96 19.02 85 1.67" fill-rule="evenodd"/>
      <polyline id="shape-2-2" data-group="2" points="74.9 0 46.92 14.39 46.92 0 74.9 0" fill-rule="evenodd"/>
    </g>
  </g>
  <g id="numbers">
    <g data-group="1">
      <text data-group="1" data-fill="#shape-1-1" data-display="yes" class="number" data-x="19" data-y="24" transform="translate(18.66 24.2)">1</text>
      <text data-group="1" data-fill="#shape-1-2" data-display="no" class="number" data-x="19" data-y="0" transform="translate(30.66 9.2)">1</text>
    </g>
    <g data-group="2">
      <text data-group="2" data-fill="#shape-2-1" data-display="yes" class="number" data-x="63" data-y="24" transform="translate(62.66 24.2)">2</text>
      <text data-group="2" data-fill="#shape-2-2" data-display="no" class="number" data-x="63" data-y="0" transform="translate(48.66 9.2)">2</text>
    </g>
  </g>
  <g id="main">
    <path class="pattern" d="M10,0,40,15l2,1V2.18A10,10,0,0,0,41.76,0H39.7A8,8,0,0,1,40,2.18V12.76L14.47,0ZM41.76,24a10,10,0,0,0-5.29-6.76L4,1,2,0V13.82a10,10,0,0,0,5.53,8.94L10,24h4.47L8.42,21A8,8,0,0,1,4,13.82V3.24L35.58,19a8,8,0,0,1,4.12,5ZM78,24l2.47-1.24A10,10,0,0,0,86,13.82V0L84,1,51.53,17.24A10,10,0,0,0,46.24,24H48.3a8,8,0,0,1,4.12-5L84,3.24V13.82A8,8,0,0,1,79.58,21l-6,3ZM78,0,48,15l-2,1V2.18A10,10,0,0,1,46.24,0H48.3A8,8,0,0,0,48,2.18V12.76L73.53,0Z" fill-rule="evenodd" fill="white"/>
  </g>
</svg>
