<svg xmlns="http://www.w3.org/2000/svg" viewBox="0 0 28 49">
  <defs>
    <style>
      .cls-1 {
        fill: red;
      }

      .cls-2 {
        fill: lime;
      }

      .cls-3 {
        font-size: 12px;
        font-family: ArialMT, Arial;
      }
    </style>
  </defs>
  <g id="colors">
    <polygon id="middle" class="cls-1" points="2.22 17.48 2.22 30.84 13.99 37.97 26.01 30.93 26.01 17.48 14.11 10.17 2.22 17.48"/>
    <polygon id="bottomleft" class="cls-2" points="0.07 49 0.07 35.27 12 42.13 12 49 0.07 49"/>
    <polygon id="bottomright" class="cls-2" points="28 49 28 35.27 16.07 42.13 16.07 49 28 49"/>
    <polygon id="topright" class="cls-2" points="28 0 28 13.73 16.07 6.87 16.07 0 28 0"/>
    <polygon id="topleft" class="cls-2" points="0 0 0 13.73 11.93 6.87 11.93 0 0 0"/>
  </g>
  <g id="numbers">
    <text id="nMiddle" class="cls-3" transform="translate(9.97 28.08)">1</text>
    <text id="nBottomleft" class="cls-3" transform="translate(-4.81 52.16)">2</text>
    <text id="nTopRight" class="cls-3" transform="translate(24.34 3.46)">2</text>
    <text id="nBottomRight" class="cls-3" transform="translate(25.38 53.23)">2</text>
    <text id="nTopleft" class="cls-3" transform="translate(-3.66 3.46)">2</text>
  </g>
  <g id="main">
    <path id="pattern" d="M14,9.25l13,7.5v15l-13,7.5L1,31.75v-15ZM3,17.9V30.6l11,6.34,11-6.35V17.9L14,11.56ZM0,15,13,7.5V0H11V6.35L0,12.69V15ZM0,33.5,13,41v8H11V42.15L0,35.81v-2.3ZM15,0V7.5L28,15h0V12.69h0L17,6.35V0Zm0,49V41l13-7.5h0v2.31h0L17,42.15V49Z"/>
  </g>
</svg>
